{"title":"Mashallah - 720pHD Song - Ek Tha Tiger","uid":7438553,"size":45343356,"categoryP":"video","categoryS":"music_videos","magnet":"?xt=urn:btih:3a3a6e75928806ddfb7f4784d175409e297cd7ad&amp;dn=Mashallah+-+720pHD+Song+-+Ek+Tha+Tiger&amp;tr=udp%3A%2F%2Ftracker.openbittorrent.com%3A80&amp;tr=udp%3A%2F%2Fopen.demonii.com%3A1337&amp;tr=udp%3A%2F%2Ftracker.coppersurfer.tk%3A6969&amp;tr=udp%3A%2F%2Fexodus.desync.com%3A6969","seeders":1,"leechers":1,"uploader":"sameer_ecs","files":3,"time":1342153293,"description":"General\nID : 1 (0x1)\nComplete name :Mashallah - Song - Ek Tha Tiger - Salman Khan &amp; Katrina Kaif.m2ts\nFormat : BDAV\nFormat/Info : Blu-ray Video\nFile size : 43.0 MiB\nDuration : 3mn 9s\nOverall bit rate mode : Variable\nOverall bit rate : 1 907 Kbps\nMaximum Overall bit rate : 35.5 Mbps\nVideo\nID : 4113 (0x1011)\nMenu ID : 1 (0x1)\nFormat : AVC\nFormat/Info : Advanced Video Codec\nFormat profile : &lt;a class=&quot;__cf_email__&quot; href=&quot;/cdn-cgi/l/email-protection&quot; data-cfemail=&quot;bbf3d2dcd3fbf788958a&quot;&gt;[email&amp;#160;protected]&lt;/a&gt;&lt;script cf-hash='f9e31' type=&quot;text/javascript&quot;&gt;\n/* &lt;![CDATA[ */!function(){try{var t=&quot;currentScript&quot;in document?document.currentScript:function(){for(var t=document.getElementsByTagName(&quot;script&quot;),e=t.length;e--;)if(t[e].getAttribute(&quot;cf-hash&quot;))return t[e]}();if(t&amp;&amp;t.previousSibling){var e,r,n,i,c=t.previousSibling,a=c.getAttribute(&quot;data-cfemail&quot;);if(a){for(e=&quot;&quot;,r=parseInt(a.substr(0,2),16),n=2;a.length-n;n+=2)i=parseInt(a.substr(n,2),16)^r,e+=String.fromCharCode(i);e=document.createTextNode(e),c.parentNode.replaceChild(e,c)}}}catch(u){}}();/* ]]&gt; */&lt;/script&gt;\nFormat settings, CABAC : Yes\nFormat settings, ReFrames : 4 frames\nCodec ID : 27\nDuration : 3mn 9s\nBit rate mode : Variable\nBit rate : 1 439 Kbps\nNominal bit rate : 1 351 Kbps\nMaximum bit rate : 40.0 Mbps\nWidth : 1 280 pixels\nHeight : 544 pixels\nDisplay aspect ratio : 2.35:1\nFrame rate : 24.000 fps\nColor space : YUV\nChroma subsampling : 4:2:0\nBit depth : 8 bits\nScan type : Progressive\nBits/(Pixel*Frame) : 0.086\nStream size : 32.4 MiB (75%)\nWriting library : x264 core 125 r2200 999b753\nAudio\nID : 4352 (0x1100)\nMenu ID : 1 (0x1)\nFormat : AC-3\nFormat/Info : Audio Coding 3\nCodec ID : 129\nDuration : 3mn 8s\nBit rate : 384 Kbps\nChannel(s) : 2 channels\nSampling rate : 44.1 KHz\nCompression mode : Lossy\nStream size : 8.65 MiB (20%)","torrent":{"xt":"urn:btih:3a3a6e75928806ddfb7f4784d175409e297cd7ad","amp;dn":"Mashallah+-+720pHD+Song+-+Ek+Tha+Tiger","amp;tr":["udp%3A%2F%2Ftracker.openbittorrent.com%3A80","udp%3A%2F%2Fopen.demonii.com%3A1337","udp%3A%2F%2Ftracker.coppersurfer.tk%3A6969","udp%3A%2F%2Fexodus.desync.com%3A6969"],"infoHash":"3a3a6e75928806ddfb7f4784d175409e297cd7ad","infoHashBuffer":{"type":"Buffer","data":[58,58,110,117,146,136,6,221,251,127,71,132,209,117,64,158,41,124,215,173]},"announce":[],"urlList":[]}}